<?xml version="1.0" standalone="no"?>
<!DOCTYPE svg PUBLIC "-//W3C//DTD SVG 20010904//EN"
 "http://www.w3.org/TR/2001/REC-SVG-20010904/DTD/svg10.dtd">
<svg version="1.0" xmlns="http://www.w3.org/2000/svg"
 width="256.000000pt" height="256.000000pt" viewBox="0 0 256.000000 256.000000"
 preserveAspectRatio="xMidYMid meet">
<metadata>
Created by potrace 1.11, written by Peter Selinger 2001-2013
</metadata>
<g transform="translate(0.000000,256.000000) scale(0.100000,-0.100000)"
fill="#000000" stroke="none">
<path d="M1140 2549 c-290 -33 -551 -159 -760 -369 -349 -349 -462 -829 -308
-1310 55 -171 165 -348 308 -490 218 -218 472 -338 788 -371 283 -29 589 52
839 222 100 69 253 222 322 322 264 387 300 873 96 1289 -63 128 -138 231
-245 338 -214 214 -470 336 -772 369 -109 12 -159 12 -268 0z m680 -469 c30
-30 25 -63 -34 -226 -53 -145 -117 -346 -131 -411 l-7 -33 52 0 c70 0 90 -12
90 -55 0 -51 -36 -75 -116 -75 l-62 0 -21 -92 c-49 -220 -91 -483 -91 -577 0
-95 -53 -131 -104 -71 -23 28 -26 40 -26 105 0 97 13 192 57 413 19 100 33
185 29 189 -8 8 -252 -53 -346 -86 l-75 -27 -73 -115 c-40 -63 -117 -190 -172
-284 -112 -193 -130 -215 -168 -215 -90 0 -66 75 120 374 54 87 96 161 93 164
-3 3 -35 -7 -73 -21 -79 -31 -85 -32 -106 -11 -22 21 -20 67 3 88 10 9 63 33
117 52 197 69 176 55 260 172 154 214 516 619 647 723 56 45 104 52 137 19z"/>
<path d="M1585 1818 c-122 -111 -425 -475 -425 -509 0 -13 3 -12 116 20 56 16
128 35 161 41 l61 12 26 92 c15 50 52 160 83 244 31 84 54 155 51 157 -3 3
-36 -23 -73 -57z"/>
</g>
</svg>
